<svg id="Layer_4" data-name="Layer 4" xmlns="http://www.w3.org/2000/svg" viewBox="0 0 1038.88 830.61"><defs><style>.cls-1{fill:#d1d3d4;}.cls-2{fill:#111820;}.cls-3{fill:#cac8c8;}.cls-4{fill:#fff;}.cls-5{fill:#1e428a;}.cls-6{fill:#8a8a8d;}.cls-7{fill:#003e52;}.cls-8{fill:#73243d;}.cls-9{fill:#939598;}.cls-10{fill:#0082ca;}.cls-11{fill:#002453;}.cls-12{fill:#6199af;}.cls-13{fill:#35647e;}.cls-14{fill:#231c34;}.cls-15{fill:#ce3262;}</style></defs><title>logo w text</title><path class="cls-1" d="M151.9 695.2l-24 101 34.38 34.36 237-21.53 11-46.23-.1 10.75 31.63 31.62 154.3-14 .18-.4 122.28-11.08 15.73-66.34 12.44-1.13c20.46-1.86 39.13-10.42 55.48-25.44 15.46-14.22 25.63-31.25 30.22-50.6l10.88-45.9c6-25.22 1-49.57-14-68.58a75 75 0 0 0-13.3-13.1l-.7-.92a74 74 0 0 0-39.65-25.9l-1.2-.32-.33-.06a77.77 77.77 0 0 0-10.54-1.77l-.53-.05h-.54c-1.58-.1-3.2-.14-5-.14-6.77 0-14.28.68-23.8 1.53-4 .35-8.3.74-13 1.12l-133.77 12.12-.1.38-356.17 32.36c-24.17 2.2-42.2 12.3-55.36 19.7-12.3 6.9-17 9.27-25 9.27a47.12 47.12 0 0 1-5.9-.4l-100.2-12.77 42.18 91.8c19.74 35.85 41.2 55.1 65.5 60.6z"/><path class="cls-1" d="M716.54 140.78a136.36 136.36 0 0 1 9.87 18.14c7.66 16.88 30.4 24.56 48.32 24.56 1.86 0 3.72-.08 5.5-.24l31.06-2.74-.56 31.17c-.15 8.3-3.13 20.4-11.24 32.33 6.32 2.53 13.57 5.3 21.85 8.3 44.36 16 63.1 45.3 79.64 71.15 15.95 24.93 29.72 46.47 67.1 62.6L1006 402.4l-29.2 29.2c-1.73 1.74-14.65 14-38.15 19.22l100.23 88.44-158.86 31.33-180.24-56.9a287.5 287.5 0 0 1-37.62 32.34c-6.17 4.4-9.54 10-15.45 20.42-9.16 16.12-21.7 38.2-54.27 56.17-16.56 9.14-42.46 21.82-72.45 36.5-51.87 25.36-116.42 57-159.34 83.46l-28.48 17.53-12.4-31c-1.12-2.83-24-61.24-22.65-142.72-4.88.9-10.23 1.72-16.08 2.5-30.7 4-56.5 22.74-56.76 22.92l-22.4 16.7-16.7-22.4c-2.1-2.8-20.74-28.45-29.3-69-7.42-35.26-8.2-88.3 27-146.5l-18.6-43.53a70.44 70.44 0 0 1-31-18.07 42.48 42.48 0 0 1-19.54-12.57c-6.67-7.6-10.67-17.38-12-29.25L68.8 274.57a61.3 61.3 0 1 1-7.5-122.1 60.9 60.9 0 0 1 53.18 30.72l26.6 12.7c7-4.23 15.7-8.42 24.85-10.3a52.2 52.2 0 0 1 10.56-1.1c20.25 0 36 11.63 54.54 28.84a735.14 735.14 0 0 1 86.78 14.83c23.4-32.37 80-97.2 160.22-101.75l15.36-.87c6.37-17.2 21-36.22 50.43-48.78 30.23-12.9 43.1-28.75 45.5-33.2C599.07 26.1 581.8 0 581.8 0s42.57 4.37 58.64 36.93c5.1 8.62 10.58 23.54 10.44 40.53a123.3 123.3 0 0 1 24.2 8.78 18.5 18.5 0 0 0 8.48 1.9 24.5 24.5 0 0 0 6.9-1c29.93-4 44.4-19.26 44.4-19.26s10.43 43.1-16.08 74.17"/><path class="cls-2" d="M899.16 453.4L728.6 390.53a199.94 199.94 0 0 0-3.7-29.12c16.65 16.2 58.26 2.78 58.26 2.78-19.42-9.25-21.26-18.5-21.26-18.5 53.62-9.24 64.72 51.32 117 71.66s78.12-5.55 78.12-5.55c-87.86-37.9-72.16-106.8-145.2-133.1-50.06-18.07-65.64-29.13-65.64-29.13 36.06-12.48 36.52-38.37 36.52-38.37-31.43 2.77-68.42-11.1-81.82-40.68s-30-36.06-30-36.06c25-3.7 30-21.26 30-21.26s-19 7.86-38.37-1.85-46.22-11.1-46.22-11.1c14.8-24 0-49 0-49-2.3 9.72-20.34 33.76-61.48 51.32s-37.44 47.6-37.44 47.6c-25.42 14.34-36.06 30-36.06 30l6.93 8.33c-4.62 13.4-6.93 22.65-6.93 22.65-20.34 3.7-51.3 14.33-51.3 14.33 9.7-30.5 49.6-71.1 49.6-71.1-91.1 5.16-149.44 105.8-149.44 105.8a686.5 686.5 0 0 0-111.4-19.9c-22.66-21.72-33.76-30-47.16-27.26s-27.74 15.25-27.74 15.25L93.1 204.04a33.24 33.24 0 1 0-20.5 41l-.4.84 57.78 22.2c-5.08 39.28 18 34.66 18 34.66 12 19.42 36.06 19.42 36.06 19.42l30.5 71.2c-74 106.77-6.92 196-6.92 196s31-23.12 69.8-28.2 50.4-12.95 50.4-12.95c-11.57 96.62 18 170.6 18 170.6 68.85-42.55 188.6-96.16 233-120.66s39.75-55.47 67-74.9a255.2 255.2 0 0 0 45.3-41.6l190.5 60.05 96.15-19z"/><path class="cls-3" d="M622.3 230.58s-3.73-4.93-9.3-11.72c-1.23-1.5-2.54-3.07-3.93-4.72-1.8-2.15-3.74-4.38-5.76-6.64-8.2-9.27-17.68-19-25.4-24a221.7 221.7 0 0 0-52.85-2.3s22.4-11.6 59.06-10a63.6 63.6 0 0 0-6.17-5.23 72.32 72.32 0 0 0-10-6.37s32.43-1.15 46.7 19.3 7.66 51.68 7.66 51.68zM600.45 242.6l-19.38 3s-18 24.74-25.7 38.05c0 0-6 1.2-13.83 3.5a141.2 141.2 0 0 0-21.7 8c-1 .5-2 1-3 1.53a141.65 141.65 0 0 1 5.83-53.47l-24 3.38s9.3-20.5 31.36-28.46c0 0-8.77-7-33.25-8.54 0 0 27.55-9.35 57.68 0l-2 7.95-13.66 53.16 28.46-50.83 2.36-3.68s18.9 9.35 30.83 26.4z"/><path class="cls-4" d="M576 211.18l29.75 8.67-8.26 5.4-8.4-3.12-13.1-10.95zM554.73 203.03l-26.57-15.93 1.64 9.73 8 4.04 16.93 2.16z"/><path class="cls-5" d="M543.92 141.9s-2.24-11.7 16.62-21a17.8 17.8 0 0 0-2.15 8.37s23.87-15.52 33.9-29.37c0 0-17 45.1-48.38 42zM913.85 407.78c-1.54-.7-26.63-12.2-52.3-45-26.52-33.86-32.27-44.76-87.5-66 1 .6 32.67 19.6 41.48 36.57-.7-.45-27.08-17.78-71.22-10.85 0 0-8-10.85-8.6-20.43 0 0-5.13 10.22-4.8 21.08 0 0-7-14.42-25.56-26.38s-16.94-23.45-16.94-23.45 11.2 16.93 47.3 20.76c0 0-71.9-32.62-81.47-109.1 0 0 16 17.73 45.35 29.22-.74-.6-24.44-19.58-35.13-46.62-10.34-26.16-37.77-33.2-40.4-33.83h-.2s31.3-3.85 54.3 36.4 50.8 52.38 74.44 58.46c0 0-22.08 13.1-64.4-1.27 0 0 .17 24.27 57.68 44.4s93.92 41.53 117.23 76.35a361.88 361.88 0 0 0 50.75 59.7z"/><path class="cls-3" d="M653.22 277.58s-2.83-.6-7.58-1.3a176.12 176.12 0 0 0-39.9-1.28s9.62-5.68 15.65-7.15a50.14 50.14 0 0 0-8.1-3.36 83 83 0 0 0-10.27-2.7s21.07-5.3 54.5-3.15c0 .04 2.63 8.88-4.3 18.93z"/><path class="cls-6" d="M470.94 245a33.66 33.66 0 0 1-3.45 8.07c-21 2.2-47.4 12.22-48.38 12.6 19.6-23.2 52.67-28.14 52.67-28.14a21.3 21.3 0 0 1-.86 7.47z"/><path class="cls-3" d="M437.5 179.8c-1.5 1.4-44.3 41.55-57.58 82.46l-7-9.47s-4.6 26.77-3 40.3a40.9 40.9 0 0 1-8.2.43 27.05 27.05 0 0 1-12.1-3.14s4.84-20.3 20.27-45.3a187.3 187.3 0 0 1 67.6-65.3z"/><path class="cls-7" d="M489.63 308.9s-.92 1.74-4.2 3.6a27.58 27.58 0 0 1-5.84 2.4 41.93 41.93 0 0 1-13.44-18.12s.13-4 4.94-8.7a30 30 0 0 1 5.1-4s2.96 14.8 13.43 24.82z"/><path class="cls-5" d="M705.1 416.48s-6.76-14.83-20.82-34.33c-14.8-20.58-37.7-46.34-69.24-65.36 0 0 28-1.53 50 14.14a55.2 55.2 0 0 0-4.3-6.55 75.2 75.2 0 0 0-17.66-16.94s73.77 8.42 62.02 109.02zM674.26 407.8c-.13.34-.25.66-.4 1a77.37 77.37 0 0 1-10.38 18.24 52.63 52.63 0 0 1-9.53 9.9c-5.37-10.44-12.7-20.92-20.6-30.7-22.38-27.7-49.46-50-50.3-50.7 15 3.52 36.52 17.42 37.2 17.85-.45-.8-.93-1.62-1.46-2.44a89.5 89.5 0 0 0-13.23-15.48 179.38 179.38 0 0 0-15.08-12.9l-1.22-.9.74.2c57.26 16.88 84.24 65.93 84.24 65.93zM623.8 430.05a25.1 25.1 0 0 1-2.07 3.08 77.5 77.5 0 0 1-14.75 14.44c-2.73 2.1-5.85 4.34-9.43 6.6 0 0-24.56-50.94-41.9-71.82a39.75 39.75 0 0 0-7-7s17.38 6.72 27.37 17c-.33-.55-3.14-5.2-7.1-11.06a156.56 156.56 0 0 0-15.07-19.34s41.18 16.3 69.95 68.1zM573.77 447.36a70.94 70.94 0 0 1-6.34 8 120.54 120.54 0 0 1-21.17 18.6c-2.53 1.76-5.26 3.5-8.16 5.2 0 0-46.76-26.36-45.3-68.64a170.72 170.72 0 0 0 14.65 14.34s-4.3-14.75-2.3-24.44a132.22 132.22 0 0 0 20.96 10.85 129.16 129.16 0 0 0-3.77-12.5 177.38 177.38 0 0 0-10.57-24.35s43 29.48 62 72.94zM611.78 115.04s15.57-6.92 30.7 1.12l-9.24 1.53a90.83 90.83 0 0 0 31.57 5s-46.53 10.33-53.02-7.66z"/><path class="cls-3" d="M486.32 464.4a164.5 164.5 0 0 1-25.16 2.23c-2.82.05-5.77 0-8.8-.1-16.85-.72-36-4.53-47.88-16.5 0 0 16-16.28 22.2-27.25a269.9 269.9 0 0 1-24.4 11.6c-12 5-26.53 10-39 11.17a36.67 36.67 0 0 1-9.12-3.86c-.8-.48-1.58-1-2.37-1.58a20.9 20.9 0 0 1-7.16-8.6s24.75-2.54 38-8.43c0 0-14.62-17.44-62.12-23.62s-53.12-32.33-53.12-32.33c.62.38 21.65 13.46 60.13 11.25 0 0-67.95-30.06-87.1-64.9v-.04s16.6 6.18 23 7.87c0 0 11-21.63 45.27-31.2 0 0-14.9 13.77-20.53 28.12 0 0 61.55-12.37 122 34a280.66 280.66 0 0 1-37.15 14.05 208.32 208.32 0 0 1-20.47 5.06s8.16 9.56 37.67 13.63 45.54 12.28 54 23.07c0 0-.55-12.83 3.1-23.08-.06 0 11.74 55.2 39 79.4z"/><path class="cls-7" d="M274.65 288.1a66.74 66.74 0 0 0-9.62 5.3 117.4 117.4 0 0 0-13.4 10.36l-56-17.55 32.27 49.63-2 10-2.74 14.16s-16.4-35.1-25.67-49.82-20.76-7-26.23-15.3c-4.64-7-3-12.32-.13-20.35.5-1.4 1.07-2.9 1.63-4.54 3.68-10.5-4.65-24.2-5.1-24.9 13.8 2.84 20.76 20.96 20.76 20.96 12.08 1.9 40.76 14.15 40.76 14.15a8.7 8.7 0 0 0 1.12 7.93c.94-3.6 5.66-7.92 5.66-7.92z"/><path class="cls-8" d="M154 265a59.68 59.68 0 0 0 .16-9.3 55.15 55.15 0 0 0-2-12.1 38.5 38.5 0 0 1 10.1 15.36 42.63 42.63 0 0 1 2.24 8.48zM143.25 260.78l-10.1-11.75-13.1.6c.2 0 3.37-2.28 6.94-4.87 4.74-3.47 10.17-7.5 10.17-7.5l3.36 13zM124.8 235.1l-8.58 5.3-10.32 6.4-1.8-11.3-1.93-12.13 9.54 11.72h13.1zM93.73 218.3v23.88l-5.7-11.94-14.96 1.6 8.37-5.48 12.3-8.05z"/><path class="cls-4" d="M54.16 216.1a11.5 11.5 0 0 1 17.74-9.66 15 15 0 1 0-10.5 20.33 11.5 11.5 0 0 1-7.24-10.68z"/><path class="cls-9" d="M316.93 514.32c-24.1 6.58-46.43-.87-46.43-.87 1.75 8.32 18 17.07 18 17.07-32.84-.44-69.64 17.1-69.64 17.1a115.4 115.4 0 0 1-10.1-35.14c-7.35-60.27 33.75-111.58 33.75-111.58-6.12 20.58-2.06 48.17-2.06 48.17 7.57-7.88 10.84-25 10.84-25s13.13 26.7-3.07 50.14a211.3 211.3 0 0 0-23.68 44.5c1.08-.64 48.45-28.46 73.56-28.46 25.4 0 42.93 17.5 18.85 24.08z"/><path class="cls-7" d="M679.6 434.9s-3.7 37.57-34.26 57.4c0 0-1.57-11.4-6-20 0 0-11.75 39-59.64 61.7 0 0 27.18-33 35.36-54.82 0 0-40.72 30.48-105.55 49.9-45.58 13.63-58.5-18.66-96.77-31.85-16-5.52-36.45-7.7-65.6-1.75l-.7.13.4-.2.17-.08c4.3-2.1 31-14.63 51.43-10.85l1.66-7s13.3-2 39.63 14.3a38.64 38.64 0 0 0 9.85 4.26 38.17 38.17 0 0 0 3.8.92h.1c22.8 4.52 49.53-6.3 49.53-6.3l-10.2-4.55 12.57-6.93s12 10.1 34.26 19.25c0 0 28.6-14.45 43.4-31.75 0 0 2.42 1.8 5.43 4.55a66.22 66.22 0 0 1 5.67 5.8s18.17-2.9 40.88-33.86c0 0 14.87 18.92 17.35 27.63 0-.02 17.87-11.1 27.25-35.9z"/><path class="cls-7" d="M559.03 556.25c-.42.55-14.24 18.58-63.54 47.3-13.67 7.94-28.58 16.36-43.2 24.5-19.86 11-39.22 21.56-54.3 29.68-17.52 9.45-29.27 15.65-29.27 15.65s-2.5-13.5.8-25.35c0 0 3.94-.65 20.94-2.9 1.17-.16 2.33-.34 3.5-.55a70.27 70.27 0 0 0 41.8-24.9s-13.13 8.17-35.56 7a94.1 94.1 0 0 1-21.44-3.7s1-11.2 13.18-17.8c2.58-1.4 6-1.9 10.07-2.13 15-.9 38.16 1.57 56.7-26.2-.73.3-28.62 11.67-55.08 7.12a54.17 54.17 0 0 1-22.33-8.9A115.9 115.9 0 0 1 394.96 540s-6.3-10.73-36.58-7.78c0 0 21.78-17 56.52 0q3.34 1.64 6.5 3.32c6.6 3.53 12.6 7.17 18.28 10.63 20.67 12.56 37 22.62 61.66 15.57 33.63-9.6 47.2-26.24 47.2-26.24s-4.5 19.8-15.32 28.57c.03.04 19.12-4.14 25.8-7.82z"/><path class="cls-3" d="M914.68 509.4l6.37 2.12-35.16 8.8-6.55-2.34-173-61.83 2.1-5.2.75-1.83 8.8 3.07.45-6.67.86-12.4s65.5 23 67.25 23.9-9.66-13.2-9.66-13.2L884.55 490l-5.87 4.23-13 9.4 60.2-8.78-16.74 12.75z"/><path class="cls-4" d="M600.45 242.6l-19.38 3s-18 24.74-25.7 38.05c0 0-6 1.2-13.83 3.5l28.73-51.58 10.24-1.8c-4.5-7.54-13.23-13.92-13.23-13.92l2.36-3.68s18.9 9.38 30.82 26.42z"/><path class="cls-10" d="M705.1 416.48s-6.76-14.83-20.82-34.33c.6-13.75-4.68-27.84-4.68-27.84l8.62 3.56c-4.8-20.47-26.82-33.1-27.5-33.47a75.2 75.2 0 0 0-17.65-16.94s73.78 8.42 62.03 109.02z"/><path class="cls-4" d="M653.22 277.58s-2.83-.6-7.58-1.3a53.4 53.4 0 0 0 3-10.6c-15.15-2.5-35.36-1.2-35.36-1.2A83 83 0 0 0 603 261.8s21.07-5.3 54.5-3.15c.03.04 2.66 8.88-4.28 18.93z"/><path class="cls-3" d="M470.94 245a33.66 33.66 0 0 1-3.45 8.07c-21 2.2-47.4 12.22-48.38 12.6 19.95-14.98 44.1-19.53 51.82-20.67z"/><path class="cls-4" d="M614.57 178.86c-14.28-20.46-46.7-19.3-46.7-19.3a72.32 72.32 0 0 1 10 6.36c15.67 3.76 25.92 11.26 30.3 22.18l-5.1-3s4.28 9.54.2 22.45c2 2.27 4 4.5 5.77 6.64l3.93 4.7c5.57 6.8 9.3 11.73 9.3 11.73s6.6-31.3-7.7-51.77zM437.5 179.8c-1.5 1.4-44.3 41.55-57.58 82.46l-7-9.47s-4.6 26.77-3 40.3a40.9 40.9 0 0 1-8.2.43c.5-22.8 7.94-47.63 8.18-48.44l7.1 6.05c26.38-48.46 59.26-70.55 60.5-71.35z"/><path class="cls-11" d="M674.26 407.8c-.13.34-.25.66-.4 1-21.77-31.38-68.26-53.3-68.26-53.3a179.38 179.38 0 0 0-15.08-12.9l-1.2-.9.73.2c57.23 16.86 84.2 65.9 84.2 65.9zM623.8 430.05a25.1 25.1 0 0 1-2.07 3.08c-12-23.15-41.58-44.32-52.87-51.84a156.56 156.56 0 0 0-15.06-19.34s41.23 16.3 70 68.1zM573.77 447.36a70.94 70.94 0 0 1-6.34 8c-9.56-24.3-33.3-46.56-45.14-56.58a177.38 177.38 0 0 0-10.58-24.34s43.05 29.46 62.05 72.92z"/><path class="cls-10" d="M663.5 427a52.63 52.63 0 0 1-9.54 9.9c-5.37-10.44-12.7-20.92-20.6-30.7-22.38-27.7-49.46-50-50.3-50.7 1.28.66 41.88 22.07 63.45 44.9h-7.2s16.53 15.55 24.2 26.6zM606.98 447.57c-2.73 2.1-5.85 4.34-9.43 6.6 0 0-24.56-50.94-41.9-71.82.95.82 31.65 27.07 43.32 44.44l-7.4-1.72s9.86 11.6 15.4 22.5zM546.25 473.93c-2.53 1.77-5.26 3.52-8.16 5.22 0 0-46.77-26.37-45.3-68.65a170.72 170.72 0 0 0 14.64 14.34s-4.28-14.73-2.28-24.42c0 0 5.35 33.86 33.34 56h-16.7a77.43 77.43 0 0 0 24.45 17.5z"/><path class="cls-4" d="M410.16 352.24A280.66 280.66 0 0 1 373 366.3c-13.04-12.2-40.73-33.88-73-33.88-43.44 0-58.7-17.8-59.6-18.92v-.05s16.57 6.18 23 7.87c0 0 11-21.63 45.25-31.2 0 0-14.9 13.77-20.53 28.12.04 0 61.6-12.37 122.04 34zM486.32 464.4a167.4 167.4 0 0 1-33.92 2.13 59 59 0 0 1-14.9-31.63c-4.6-30.78-42.62-37.37-61.58-43.3-21.18-6.6-23.4-20.24-23.4-20.24s8.17 9.56 37.68 13.63 45.54 12.28 54 23.07c0 0-.55-12.83 3.1-23.08-.04 0 11.76 55.2 39.02 79.4z"/><path class="cls-9" d="M408.42 423.53s-32.5-31.93-77.9-34.28c-44.67-2.3-62.57-21.5-63.13-22.1s5.6 26.13 53.1 32.32 62.13 23.6 62.13 23.6c-13.2 5.9-38 8.43-38 8.43a20.9 20.9 0 0 0 7.15 8.6l.45.32c.64.45 1.28.88 1.92 1.26a36.67 36.67 0 0 0 9.18 3.88c12.45-1.17 27-6.16 39-11.17a36.3 36.3 0 0 1-9-4.12c8.83-3.65 15.1-6.75 15.1-6.75z"/><path class="cls-3" d="M316.93 514.32a74.08 74.08 0 0 1-9.3 1.9 90.07 90.07 0 0 1-37.13-2.77c1.75 8.32 18 17.07 18 17.07-32.84-.44-69.64 17.1-69.64 17.1a115.4 115.4 0 0 1-10.1-35.14 95.2 95.2 0 0 1 28.5-38.23c21.33-16.8 14-50.14 14-50.14s13.13 26.72-3.07 50.15a211.3 211.3 0 0 0-23.68 44.44 341.9 341.9 0 0 1 41.25-20.3c11.52-4.6 23.33-8.14 32.3-8.14 25.42-.03 42.94 17.5 18.86 24.06z"/><path class="cls-12" d="M679.6 434.9s-3.7 37.57-34.26 57.4c0 0-.32-2.33-1.08-5.68 26.76-18.62 35-50.48 35.33-51.68a.1.1 0 0 0 0-.04zM639.33 472.26s-6.1 20.22-27.37 40a126.37 126.37 0 0 1-32.27 21.7s7.8-9.47 16.3-21.62c20.9-15.57 43.33-40.08 43.33-40.08z"/><path class="cls-13" d="M559.03 556.25c-.28.37-6.6 8.62-25.65 22.7a418.82 418.82 0 0 1-37.9 24.6c-13.65 7.94-28.56 16.36-43.2 24.5 15.2-13.26 27.72-25.8 27.72-25.8-11.6-1.06-16.72-6.2-16.72-6.2 23.73-4.3 29.52-15.36 29.52-15.36-27.1-1.1-33.55-17.8-53.06-34.5 20.67 12.56 37 22.62 61.66 15.57 17-4.85 28.85-11.48 36.44-16.87s10.77-9.36 10.77-9.36-4.5 19.8-15.32 28.57c0 0 19.08-4.17 25.75-7.85z"/><path class="cls-12" d="M559.03 556.25c-.28.37-6.6 8.62-25.65 22.7a25.6 25.6 0 0 0 3.06-9.3c-6.18 3.08-16.93 2.9-16.93 2.9 10.32-8.23 15.84-20.54 18.33-27.65 7.45-5.27 10.77-9.36 10.77-9.36s-4.52 19.8-15.33 28.57c0 0 19.1-4.17 25.76-7.85z"/><path class="cls-13" d="M489.63 308.9s-.92 1.74-4.2 3.6a35.1 35.1 0 0 1-14.36-24.42 30 30 0 0 1 5.1-4s3 14.8 13.46 24.82z"/><path class="cls-9" d="M552.4 217.62a197.92 197.92 0 0 0-27.4 13h16.53s-22 31.92-21.7 64.65c-1 .5-2 1-3 1.54a141.65 141.65 0 0 1 5.83-53.46l-24 3.37s9.3-20.5 31.36-28.45c0 0-8.77-7-33.25-8.54 0 0 27.55-9.34 57.68 0zM565.32 176.57l12.54 6.9a221.7 221.7 0 0 0-52.84-2.3s22.4-11.58 59.06-10c0-.03-15.76 3.4-18.76 5.4z"/><path class="cls-13" d="M274.65 288.1a66.74 66.74 0 0 0-9.62 5.3l-26.26-5.94c-4.43 2.08-6.5 7.55-6.5 7.55-8.8-5.4-8.87-8.84-8.87-8.84-14.08-9.1-40.66-12.47-40.66-12.47 3.07-14.6-14.45-28.12-15.07-28.57 13.78 2.83 20.75 20.95 20.75 20.95 12.08 1.9 40.76 14.15 40.76 14.15a8.7 8.7 0 0 0 1.13 7.92c.95-3.6 5.67-7.92 5.67-7.92z"/><path class="cls-4" d="M878.7 494.22l-74.83-30.64 9.5 11.54-94.9-29.58.86-12.4s65.48 23 67.24 23.9-9.66-13.2-9.66-13.2L884.6 490zM925.87 494.83l-34.36 12.82-25.84-4.04 60.2-8.77z"/><path class="cls-9" d="M921.05 511.52l-35.16 8.8-6.55-2.34-172.98-61.83 2.1-5.2 179.26 64.04 26.95-5.6 6.37 2.12z"/><path class="cls-10" d="M863.08 348.07c-23.3-34.82-59.73-56.23-117.23-76.35s-57.7-44.4-57.7-44.4c42.33 14.38 64.4 1.3 64.4 1.3-23.63-6.1-51.4-18.22-74.4-58.47S623.8 133.7 623.8 133.7h.2c2.7.48 31.72 6.25 44.5 31.34 11.64 22.9 30.84 47 49 57.8a113.2 113.2 0 0 1-27.95-6.7s-.08 2.68 4.6 6.9a75.87 75.87 0 0 1-20.76-8.63s2.2 36.6 53.64 63.1l-1.27-6.8s45.84 13.12 78.26 31.4 47.06 34.88 58 52.18 40.1 47.4 51.73 53.47h.05a361.88 361.88 0 0 1-50.72-59.68z"/><path class="cls-14" d="M395.46 566.23l10.88-2.72s-5.14 10.9-2.72 20.46a54.17 54.17 0 0 1-22.33-8.9A115.9 115.9 0 0 1 394.96 540s-6.3-10.72-36.58-7.77c0 0 21.78-17 56.52 0q3.34 1.65 6.5 3.33s-19.17 12.34-25.96 30.7zM400.16 626.7a94.1 94.1 0 0 1-21.45-3.7s1-11.22 13.2-17.8c2.57-1.4 6-1.9 10.06-2.15-3.28 3.58-7.67 11.25-1.8 23.64zM398 657.7c-17.53 9.44-29.28 15.64-29.28 15.64s-2.5-13.5.8-25.35c0 0 3.94-.66 20.94-2.9 1.17-.17 2.33-.35 3.5-.56A124.8 124.8 0 0 0 398 657.7z"/><path class="cls-13" d="M679.6 434.9s-3.7 37.57-34.26 57.4c0 0-.32-2.33-1.08-5.68a63.23 63.23 0 0 0-4.93-14.36s-6.1 20.22-27.37 40a126.37 126.37 0 0 1-32.27 21.7c.45-.56 8-9.82 16.27-21.6 7.36-10.53 15.25-23.07 19.05-33.2 0 0-40.72 30.48-105.55 49.9-18.8 5.62-32 3.43-43.78-2 42.9 4.76 56.93-25.32 56.93-25.32s1.37 5.83-3.15 14.7c0 0 51.67-17.8 69-45.24a66.22 66.22 0 0 1 5.67 5.8s18.17-2.9 40.88-33.86c0 0 1.5 1.9 3.6 4.8.68.9 1.42 1.9 2.2 3 4.47 6.24 10.1 14.76 11.54 19.82 0 0 16.68-9.74 27.24-35.85z"/><path class="cls-14" d="M449.58 496c-15.73-3.44-27.6-1.62-36.86 1.2-16-5.52-36.45-7.7-65.6-1.75l-.12-.16c4.3-2.12 31-14.64 51.43-10.86l1.66-7s13.3-2 39.63 14.3a38.64 38.64 0 0 0 9.85 4.25zM225.9 345.86L223.15 360s-16.4-35.1-25.67-49.82-20.76-7-26.23-15.3c-4.64-7-3-12.32-.13-20.35-1 11.54 3.18 19.95 22 23.9 5.72 1.48 24.02 32.17 32.75 47.43z"/><path class="cls-15" d="M81.44 226.36l12.3-8.05v13.02l-12.3-4.96zM111.7 235.1h13.1l-8.58 5.3-12.1-4.9-1.95-12.13 9.54 11.72zM137.16 237.27l3.36 13-13.54-5.47 10.18-7.53zM162.27 259l-8.1-3.3a55.15 55.15 0 0 0-2-12.1 38.5 38.5 0 0 1 10.1 15.4z"/><path class="cls-12" d="M679.6 434.9s-3.7 37.57-34.26 57.4c0 0-.32-2.33-1.08-5.68a63.23 63.23 0 0 0-4.93-14.36s-6.1 20.22-27.37 40a126.37 126.37 0 0 1-32.27 21.7c43.14-27.16 60.74-81.87 61.1-83 4.47 6.26 10.1 14.78 11.54 19.84 0 0 16.68-9.74 27.24-35.85a.1.1 0 0 0 .02-.05z"/><path class="cls-4" d="M316.93 514.32a74.08 74.08 0 0 1-9.3 1.9c10.87-13-13.04-22.9-41.85-17.84 11.52-4.6 23.33-8.13 32.3-8.13 25.4-.02 42.93 17.5 18.85 24.07z"/><path class="cls-2" d="M807.36 539.1a46.58 46.58 0 0 0-11.4-10.36c-.85-1.32-1.73-2.54-2.6-3.65a46.06 46.06 0 0 0-24.74-16.2 9.76 9.76 0 0 1-1-.23 49.87 49.87 0 0 0-6.73-1.13c-8.2-.48-20.36 1.08-37.92 2.5l-113.37 10.3-.08.37-165.36 15-.34 1.43q-2.5-.35-5.1-.46l-.75-.42-34.2 3.1-170.54 15.55c-18.2 1.65-32 9.4-44.17 16.22-12.82 7.2-22.95 12.87-38.7 12.87a75.16 75.16 0 0 1-9.44-.64l-50.1-6.38 21.08 45.9c3.16 6.88 9.9 16.16 20.48 23.67l-.3.3c7.67 10 25.28 26.8 57 26.8q3.58 0 7.27-.3l-3.56 15-10.7 1-23.26 98.15 14 14 76.77-7 40.12-3.64 10.15-.92 76.77-7 15.74-66.25 32.53-3a61 61 0 0 0 13.86-2.9l-.48 51.28 14 14 125.1-11.4.17-.38 118.4-10.76 15.72-66.33 32.54-3c14.2-1.28 27.34-7.4 39-18.15 11.28-10.36 18.65-22.62 21.93-36.43l10.88-45.9c5.16-21.33-1.84-36.03-8.64-44.62z"/><path class="cls-5" d="M691.93 604.94l-8-2.9-2.9 12.24 8.87-.8 2.03-8.54zM724.45 585.4l-25.7 2.35-11.67 1.06-21.84 2 16.85 6.12 12-1.1 11.66-1.05 24.9-2.26a6.38 6.38 0 0 0-1.1-5.07 5.47 5.47 0 0 0-5.1-2.02zM785.37 556.5a18.4 18.4 0 0 0-5.45-4.7q4.42 7.55 1.83 18.54l-10.88 45.9q-3 12.47-13.6 22.26t-22.6 10.88l-63.3 5.75-6.1 25.73 8.85-.8 4.25-17.93 63.3-5.75q11.95-1.1 22.6-10.88t13.6-22.26l10.9-45.9q3-12.73-3.4-20.84zM666.3 720.5l-59.27 5.38-1.85 7.8 68.13-6.18 9.64-40.6-8.86.8-7.78 32.8z"/><path class="cls-7" d="M638.5 593.22l-1.86 7.82 1.8-.17 1.87-7.8-1.8.15z"/><path class="cls-5" d="M298.06 632.17l10.65-.96 10.47-.94 1.85-7.82-19.32 1.76-10.65.97h-.03l-21.83 92.06 8.86-.8 19.97-84.25h.03zM372.44 635.2l-7.95-3.05-2.74 11.5 8.86-.8 1.82-7.66zM405.16 614.8l-21.6 2-15.77 1.42-23 2.1 16.15 6.17 13.87-1.27 15.77-1.43 20.8-1.9a6.37 6.37 0 0 0-1.1-5.07 5.47 5.47 0 0 0-5.14-2.04zM278.9 756.07l7.76-32.78-8.64.77-7.77 32.78-59.27 5.4-1.86 7.8 68.13-6.2 1.86-7.8-.2.02zM251.1 633.3l13.3-2.7c-7-4.54-15.24-9-60.63 4.55-25.1 7.48-40.6 1.5-49.45-5.36 6.1 8 22.48 22.48 56.46 12.36 19.16-5.7 31.7-8.2 40.3-8.86zM466.1 585.88a18.4 18.4 0 0 0-5.46-4.7q4.42 7.5 1.83 18.5l-10.88 45.9q-3 12.48-13.62 22.27t-22.6 10.88l-63.3 5.75-6.1 25.73 8.86-.8 4.25-17.92 63.3-5.75q11.94-1.1 22.6-10.88t13.6-22.26l10.88-45.9q3.02-12.7-3.4-20.82zM347.02 749.88l-59.27 5.38-1.85 7.82 68.13-6.2 9.62-40.6-8.86.82-7.78 32.78zM532.27 603.25l-10.67.97-17.98 1.63 15.62 6.23 9.37-.85 10.68-.98 9.63-40.6-8.85.82-7.78 32.78z"/><path class="cls-7" d="M567.1 600.08l-1.8.17-1.84 7.7 3.64-7.87z"/><path class="cls-5" d="M632.33 562.08l-7.77 32.78-10.68.97-62.22 135.45-70.96 6.45-.07 7.65 78.04-7.1 62.22-135.44 10.67-.97 9.62-40.6-8.87.8z"/><path class="cls-5" d="M521.7 698.18l7-15.1-.08-63.05-7-2.8.08 80.95z"/><path class="cls-7" d="M474.82 608.47l-1.8.16-1.87 7.82 3.6-.33.07-7.65z"/><path class="cls-4" d="M771.36 542.5q-6.4-8.13-18.36-7l-120.75 11-9.62 40.57 10.67-1-9.2 38.8-12.64 53.24-10.67 1-9.64 40.6 68.14-6.2 9.62-40.6-10.67 1 6.1-25.72 63.3-5.76q12-1.08 22.6-10.86t13.6-22.27l1.3-5.48 9.58-40.44q3.03-12.78-3.37-20.9zm-91.3 39.3l11.7-1.1 25.68-2.34a5.4 5.4 0 0 1 5.12 2c1.2 1.52 1.52 3.54.95 6l-1.94 8.22a12.44 12.44 0 0 1-3.7 6.2 10.57 10.57 0 0 1-6.46 3l-37.36 3.4 3.87-16.36-19.67-7.13zM452.06 571.87q-6.4-8.12-18.35-7l-129.4 11.76-10.64 1-57.9 5.26c-31.1 2.8-47.88 34.77-98.38 28.34 0 0 14 30.5 59.4 17s53.64-9.08 60.63-4.54l-13.8 2.8a12.5 12.5 0 0 0-9.5 9.35l-11.68 49.22-7 29.5-10.67 1-9.62 40.6 68.13-6.18 9.62-40.6-10.67 1 7.68-32.36 14.16-59.7 10.65-1L314 615.6l-13.72 57.87-8.14 34.03-10.7 1-9.6 40.6 68.12-6.2 9.62-40.58-10.67 1 6.1-25.72 63.3-5.76q11.94-1.08 22.6-10.88a49.78 49.78 0 0 0 7.23-8.27 40.56 40.56 0 0 0 6.38-14.06l10.92-45.95q3.02-12.72-3.4-20.83zm-91.27 39.3l15.76-1.42 21.6-2a5.42 5.42 0 0 1 5.13 2c1.2 1.52 1.5 3.54.92 6l-1.94 8.22a12.28 12.28 0 0 1-3.7 6.2 10.6 10.6 0 0 1-6.45 3l-37.4 3.52 3.7-15.5-20.67-7.9zM627.16 547.25l-9.6 40.6-10.7.97-19.03 41.47-43.18 93.97-78.04 7.1.78-83.06.44-46.85-10.7.98 9.64-40.6 68.13-6.18-9.63 40.58-10.7.98-17.96 1.64 18 7.17.04 35.25.05 49.92 24.82-53.66 20.57-44.42-10.68.96 9.62-40.58 68.12-6.2z"/><path class="cls-3" d="M242.6 637.76a3.76 3.76 0 0 1 2.73-2.8l27-5.44-9.62 40.55-28.77 4.3zm82.76-32.15l-45.15 4.1-4.1 3.9-.6 2.54-1.8 7.58-11.54-7.47c-4.6-3-10-5.92-20.63-5.92s-25.74 3-47.27 9.4a67.9 67.9 0 0 1-19.22 3.1 39.55 39.55 0 0 1-14.53-2.56c19.84-2.07 33.9-10 46.55-17.05 10.26-5.76 19.12-10.73 29.5-11.67l198-18c.68-.06 1.34-.1 2-.1 3.92 0 6.6 1.18 8.7 3.83.93 1.2 3.78 4.8 1.74 13.38l-10.95 45.93a31 31 0 0 1-3.1 8L311.8 662.7zm18 40.88l49.5-4.5a19.45 19.45 0 0 0 11.68-5.4 21 21 0 0 0 6.2-10.56l1.95-8.2a15.4 15.4 0 0 0-2.54-13.47 14 14 0 0 0-11.2-5.35c-.53 0-1.07 0-1.62.08l-21.56 2-15.76 1.42-23 2.1-2.33 16.9 13.46 5.1zM476.67 591.84l-8.2.75 5.36-22.6 49.73-4.53-5.36 22.6-22.4 2.04-2.44 16.88 12.5 4.97v21.75l-29.62 4.43.43-46.3zM574.42 583l-13.67 1.22 5.36-22.6 49.73-4.54-5.35 22.62-9.45.85-19.2 41.78-27.53 4.12L574.42 583zM644.63 576.23l-10.67 1 5.36-22.6 114.47-10.4q1-.1 2-.1c3.93 0 6.6 1.18 8.7 3.83 1.62 2.06 3.57 5.67 1.74 13.38l-8.22 34.68-29.18 4.36a20.53 20.53 0 0 0 1.25-3.64l2-8.26c1.18-5.08.25-9.86-2.62-13.47a14 14 0 0 0-11.2-5.34c-.53 0-1.07 0-1.62.08l-37.33 3.38-21.84 2-2.2 17 12.34 4.47-3.2 13.47-28.77 4.3z"/><path class="cls-2" d="M112.48 624.07c6.35 13.76 38.5 58.15 84.73 50.3l5.34-8-18.22-10.3-35.92-14.78-27-16.5z"/></svg>