<svg id="Layer_5" data-name="Layer 5" xmlns="http://www.w3.org/2000/svg" viewBox="0 0 1229.01 538.49"><defs><style>.cls-1{fill:#d1d3d4;}.cls-2{fill:#111820;}.cls-3{fill:#1e428a;}.cls-4{fill:#003e52;}.cls-5{fill:#fff;}.cls-6{fill:#cac8c8;}</style></defs><title>logo-text</title><path class="cls-1" d="M165.06,330.85,128.32,485.79l52.7,52.7,363.34-33,16.81-70.89L561,451.06l48.5,48.48L846.09,478l.27-.59,187.57-17L1058,358.71l19.09-1.73c31.38-2.85,60-16,85.07-39,23.71-21.79,39.3-47.9,46.34-77.59L1225.22,170c9.17-38.66,1.57-76-21.42-105.14a114.93,114.93,0,0,0-20.41-20.1l-1.08-1.39a113.45,113.45,0,0,0-60.79-39.73l-1.85-.48-.5-.09A119.24,119.24,0,0,0,1103,.34l-.82-.08-.82,0c-2.42-.14-4.9-.21-7.6-.21-10.38,0-21.9,1-36.49,2.35-6.08.55-12.73,1.15-20,1.73L832.14,22.72l-.14.58L285.87,72.93c-37,3.37-64.68,18.87-84.87,30.19-18.86,10.58-26,14.23-38.28,14.23a72.25,72.25,0,0,1-9.06-.62L0,97.15,64.66,237.91C95,292.88,127.82,322.39,165.06,330.85Z"/><path class="cls-2" d="M1170.09,91.52a71.42,71.42,0,0,0-17.47-15.89c-1.32-2-2.67-3.89-4-5.6a70.62,70.62,0,0,0-37.92-24.81,15,15,0,0,1-1.5-.36,76.47,76.47,0,0,0-10.32-1.73c-12.55-.74-31.2,1.65-58.13,3.81L866.89,62.73l-.14.58-253.6,23-.52,2.21q-3.86-.54-7.84-.71l-1.14-.64L551.21,92,289.76,115.74c-27.9,2.54-49.06,14.4-67.73,24.87-19.66,11-35.18,19.73-59.32,19.73a115.24,115.24,0,0,1-14.49-1l-76.83-9.79L103.73,220c4.85,10.55,15.17,24.78,31.39,36.3l-.46.45c11.77,15.35,38.77,41.11,87.39,41.11q5.49,0,11.15-.46l-5.46,23-16.37,1.49L175.69,472.36l21.49,21.49,117.72-10.7h0l61.5-5.59L392,476.15h0l117.71-10.7,24.12-101.7,49.89-4.53a93.61,93.61,0,0,0,21.23-4.44l-.73,78.64,21.5,21.49,191.76-17.42.27-.59,181.52-16.5,24.11-101.7,49.89-4.53c21.76-2,41.9-11.35,59.86-27.85,17.28-15.88,28.58-34.68,33.61-55.87l16.69-70.38C1191.18,127.23,1180.47,104.69,1170.09,91.52Z"/><polygon class="cls-3" points="993.09 192.47 980.85 188.02 976.4 206.78 989.99 205.54 993.09 192.47"/><path class="cls-3" d="M1043,162.52l-39.4,3.58-17.9,1.63-33.49,3L978,180.15l18.4-1.67,17.9-1.63,38.16-3.47c.46-3.13,0-5.75-1.66-7.79A8.39,8.39,0,0,0,1043,162.52Z"/><path class="cls-3" d="M1136.37,118.19A28.22,28.22,0,0,0,1128,111q6.78,11.58,2.8,28.43l-16.69,70.38q-4.53,19.12-20.87,34.14t-34.66,16.68l-97.06,8.82-9.36,39.46,13.59-1.23,6.52-27.48,97.06-8.82q18.32-1.66,34.66-16.68t20.87-34.14l16.69-70.38Q1146.2,130.63,1136.37,118.19Z"/><polygon class="cls-3" points="953.8 369.64 862.92 377.9 860.08 389.88 964.54 380.39 979.3 318.14 965.71 319.38 953.8 369.64"/><polygon class="cls-4" points="911.15 174.5 908.31 186.48 911.09 186.23 913.93 174.24 911.15 174.5"/><polygon class="cls-3" points="389.16 234.22 405.49 232.74 421.53 231.28 424.37 219.3 394.75 221.99 378.41 223.48 378.38 223.48 344.9 364.64 358.49 363.4 389.12 234.23 389.16 234.22"/><polygon class="cls-3" points="503.21 238.84 491.02 234.19 486.83 251.84 500.42 250.6 503.21 238.84"/><path class="cls-3" d="M553.39,207.58l-33.12,3-24.17,2.2L460.79,216l24.78,9.47,21.27-1.93,24.17-2.2,31.89-2.9c.46-3.13,0-5.75-1.66-7.79A8.39,8.39,0,0,0,553.39,207.58Z"/><polygon class="cls-3" points="359.76 424.19 371.68 373.93 358.43 375.13 346.51 425.39 255.64 433.65 252.79 445.63 357.26 436.14 360.1 424.16 359.76 424.19"/><path class="cls-3" d="M317.15,236l20.43-4.12c-10.72-7-23.38-13.78-93,7-38.51,11.48-62.26,2.28-75.82-8.22,9.34,12.19,34.47,34.49,86.57,19C284.72,240.78,303.93,236.95,317.15,236Z"/><path class="cls-3" d="M646.81,163.25a28.22,28.22,0,0,0-8.35-7.21q6.78,11.58,2.8,28.43l-16.69,70.38Q620,274,603.69,289T569,305.66L472,314.48l-9.36,39.46,13.59-1.23,6.52-27.48,97.06-8.82q18.32-1.66,34.66-16.68t20.87-34.14L652,195.21Q656.63,175.69,646.81,163.25Z"/><polygon class="cls-3" points="464.23 414.69 373.35 422.95 370.51 434.94 474.98 425.44 489.74 363.2 476.15 364.44 464.23 414.69"/><polygon class="cls-3" points="748.29 189.87 731.92 191.35 704.36 193.86 728.29 203.41 742.66 202.1 759.03 200.61 773.79 138.37 760.21 139.61 748.29 189.87"/><polygon class="cls-4" points="801.69 185.01 798.91 185.27 796.11 197.08 801.69 185.01"/><polygon class="cls-3" points="901.71 126.75 889.79 177.01 873.41 178.5 778.01 386.18 669.2 396.07 669.1 407.8 788.76 396.93 884.16 189.24 900.53 187.75 915.29 125.51 901.71 126.75"/><polygon class="cls-3" points="732.08 335.43 742.79 312.29 742.68 215.6 731.94 211.32 732.08 335.43"/><polygon class="cls-4" points="660.2 197.87 657.41 198.12 654.57 210.1 660.09 209.6 660.2 197.87"/><path class="cls-5" d="M1114.88,96.7q-9.83-12.45-28.16-10.77L901.58,102.75,886.83,165l16.36-1.48L889.08,223l-19.37,81.65-16.36,1.48-14.78,62.25,104.49-9.48,14.75-62.25-16.36,1.48,9.35-39.44,97-8.84q18.34-1.65,34.66-16.66T1103.38,199l2-8.38,14.7-62Q1124.7,109.14,1114.88,96.7ZM974.9,157l17.92-1.61,39.39-3.57c3.39-.32,6,.7,7.85,3.06s2.34,5.43,1.45,9.22l-3,12.6a19.07,19.07,0,0,1-5.7,9.48,16.2,16.2,0,0,1-9.89,4.68L965.66,196,971.6,171,941.42,160Z"/><path class="cls-5" d="M625.3,141.76q-9.83-12.45-28.13-10.77L398.75,149l-16.34,1.48-88.77,8.06C246,162.88,220.22,211.89,142.78,202c0,0,21.49,46.75,91.08,26s82.24-13.92,93-7l-21.17,4.27a19.17,19.17,0,0,0-14.59,14.35l-17.89,75.47-10.75,45.25-16.36,1.48-14.75,62.25,104.46-9.48,14.75-62.25-16.36,1.48,11.77-49.6,21.71-91.54,0,0L384,211.24l29.64-2.69-21,88.74-12.44,52.42-16.39,1.48L349,413.45l104.46-9.51,14.75-62.23-16.36,1.48,9.35-39.44,97.07-8.84q18.3-1.65,34.66-16.68A76.33,76.33,0,0,0,604,265.65a62.19,62.19,0,0,0,9.78-21.55l16.68-70.39Q635.15,154.2,625.3,141.76ZM485.35,202l24.18-2.18,33.13-3a8.31,8.31,0,0,1,7.85,3.06c1.85,2.34,2.34,5.43,1.42,9.22l-3,12.6a18.83,18.83,0,0,1-5.67,9.48,16.27,16.27,0,0,1-9.89,4.67l-57.31,5.21,5.64-23.75L450,205.25Z"/><polygon class="cls-5" points="893.79 104.01 879.04 166.26 862.67 167.74 833.47 231.34 767.27 375.43 647.6 386.31 648.78 258.96 649.45 187.11 633.06 188.62 647.84 126.37 752.3 116.88 737.55 179.11 721.16 180.61 693.6 183.11 721.19 194.1 721.24 248.13 721.32 324.68 759.39 242.41 790.94 174.27 774.58 175.75 789.33 113.52 893.79 104.01"/><path class="cls-6" d="M304.14,242.79a5.77,5.77,0,0,1,4.17-4.28l41.4-8.35L335,292.34l-44.13,6.6ZM431,193.49l-69.22,6.27-6.28,6-.95,3.91-2.76,11.63-17.67-11.47c-7.08-4.59-15.34-9.07-31.63-9.07-16.44,0-39.47,4.58-72.49,14.43a104.13,104.13,0,0,1-29.47,4.75A60.64,60.64,0,0,1,178.28,216c30.4-3.18,52-15.29,71.35-26.15,15.73-8.83,29.32-16.45,45.22-17.89l303.53-27.57c1.06-.1,2.07-.15,3-.15,6,0,10.14,1.81,13.34,5.87,1.45,1.83,5.81,7.34,2.68,20.51L600.75,241A47.59,47.59,0,0,1,596,253.27l-185.73,27.8Zm27.67,62.67,75.91-6.9A29.82,29.82,0,0,0,552.5,241,32.17,32.17,0,0,0,562,224.79l3-12.58c1.86-7.72.46-15.07-4-20.66a21.39,21.39,0,0,0-17.19-8.21c-.8,0-1.62,0-2.46.12l-33.06,3-24.17,2.18-35.32,3.22-3.57,25.93,20.68,7.89Z"/><polygon class="cls-6" points="663.02 172.38 650.45 173.53 658.68 138.87 734.93 131.95 726.71 166.61 692.38 169.73 688.62 195.59 707.76 203.21 707.8 236.56 662.36 243.35 663.02 172.38"/><path class="cls-6" d="M920.56,148.44l-16.36,1.48,8.22-34.66,175.52-15.95q1.59-.15,3-.15c6,0,10.15,1.81,13.36,5.87,2.49,3.15,5.47,8.7,2.66,20.52l-12.6,53.17-44.74,6.69a31.48,31.48,0,0,0,1.92-5.59l3-12.67c1.82-7.79.4-15.11-4-20.66a21.39,21.39,0,0,0-17.18-8.2c-.8,0-1.62,0-2.46.12l-57.24,5.18-33.5,3.06-3.36,26,18.92,6.86-4.89,20.67-44.13,6.6Z"/><polygon class="cls-6" points="812.36 157.84 791.4 159.74 799.62 125.07 875.86 118.13 867.65 152.8 853.17 154.11 823.75 218.17 781.51 224.48 812.36 157.84"/></svg>